<?xml version="1.0" standalone="no"?><!DOCTYPE svg PUBLIC "-//W3C//DTD SVG 1.1//EN" "http://www.w3.org/Graphics/SVG/1.1/DTD/svg11.dtd"><svg t="1588731514208" class="icon" viewBox="0 0 1024 1024" version="1.1" xmlns="http://www.w3.org/2000/svg" p-id="844" xmlns:xlink="http://www.w3.org/1999/xlink" width="200" height="200"><defs><style type="text/css"></style></defs><path d="M2.632194 444.639438a444.639438 444.625548 90 1 0 889.251096 0 444.639438 444.625548 90 1 0-889.251096 0Z" fill="#FFF000" p-id="845"></path><path d="M740.554006 779.197554m0.766105-0.766105l34.464907-34.464907q0.766105-0.766105 1.53221 0l243.729457 243.729457q0.766105 0.766105 0 1.53221l-34.464907 34.464907q-0.766105 0.766105-1.53221 0l-243.729457-243.729457q-0.766105-0.766105 0-1.53221Z" fill="#FFF000" p-id="846"></path><path d="M201.428847 666.327152a24.363424 24.363424 0 0 1-20.154692-10.612118C83.681556 513.257064 91.640645 337.532046 198.97028 264.080628a24.414818 24.414818 0 1 1 27.599842 40.281603c-85.119193 58.338872-87.355516 203.547103-5.000474 323.794631a24.391205 24.391205 0 0 1-20.113021 38.198071z" fill="#FFFFFF" p-id="847"></path><path d="M804.97226 98.32878a77.840724 34.14213 90 1 0 68.284261 0 77.840724 34.14213 90 1 0-68.284261 0Z" fill="#FFF000" p-id="848"></path><path d="M859.454164 202.889826a34.14213 77.840724 66.32 1 0 142.573512-62.526048 34.14213 77.840724 66.32 1 0-142.573512 62.526048Z" fill="#FFF000" p-id="849"></path></svg>